# xmcd
#
# Track frame offsets:
#	150
#	9757
#	22268
#	32289
#	46530
#	59615
#	75043
#	90066
#	109422
#	122977
#
# Disc length: 1780 seconds
#
# Revision: 0
# Processed by: cddbd v1.5.2PL0 Copyright (c) Steve Scherf et al.
# Submitted via: dBpowerAMP V4.0
#
DISCID=6306f20a
DTITLE=Elizabeth Long - Sing a Sad Song
DYEAR=1900
DGENRE=Bluegrass
TTITLE0=One has My Heart
TTITLE1=Sing a Sad Song
TTITLE2=Dragging the Bow
TTITLE3=So Many Years (with Mac Wiseman)
TTITLE4=Ice Cold Love
TTITLE5=Alabama Jubilee
TTITLE6=Seasons of my Heart
TTITLE7=Each Night at Nine
TTITLE8=The Eyes of a Child
TTITLE9=Orange Blossom Special
EXTD=
EXTT0=
EXTT1=
EXTT2=
EXTT3=
EXTT4=
EXTT5=
EXTT6=
EXTT7=
EXTT8=
EXTT9=
PLAYORDER=
